<svg id="f654bcbe-7360-41de-9c7d-eb17870bdc8f" data-name="Layer 1" xmlns="http://www.w3.org/2000/svg" viewBox="0 0 566.93 566.93"><defs><style>.a6934edb-eddb-49ab-b69c-8449e39380ee{fill:#333b61;}.ec0ac459-9d59-46d2-8594-9df5d703d605{fill:#f7a800;}</style></defs><path class="a6934edb-eddb-49ab-b69c-8449e39380ee" d="M239.25,233.62c47.7-28.77,107,3.64,108.65,57.83.68,21.82-1.5,42.93-15.16,60.81-19.38,25.39-45.54,35.54-77,30-7.51-1.32-14.35-6.47-22.87-10.51-8.23,11.64-21.23,15.25-37.67,11.41v-9.38q0-89.93,0-179.85c0-10.06-.1-19.52-12.34-23.53-1.83-.6-1.92-6.44-3.09-10.9,18.78,0,36-.15,53.18.08,5.55.08,6.29,4.4,6.28,8.93q-.06,27.48,0,54.95Zm0,70.4c0,16.36-.14,32.72.13,49.08.05,3.07.89,6.79,2.75,9.08,11.89,14.59,31.43,13.86,42.22-1.47,8.76-12.44,11.5-26.82,12.36-41.62,1.08-18.67.41-37.18-8.83-54.15-9-16.45-26.47-23.89-42.77-19-4.49,1.35-6,3.48-6,8.18C239.42,270.75,239.25,287.39,239.25,304Z"/><path class="ec0ac459-9d59-46d2-8594-9df5d703d605" d="M417.18,217.44a65.79,65.79,0,0,0,23.67-4.34c10.6-4,19.93-10.12,28.62-17.33,5.76-4.78,8.07-10.85,7.66-18.12a20.09,20.09,0,0,0-4.44-12A22.06,22.06,0,0,0,442,162.31a84.27,84.27,0,0,1-14.32,9.2,21.56,21.56,0,0,1-13.43,2.25,40.66,40.66,0,0,1-14.81-5.24c-5.36-3.31-10.73-6.62-16.24-9.68a65.79,65.79,0,0,0-30.49-8.61,48.62,48.62,0,0,0-19.73,4c-8.81,3.57-16.7,8.75-24.56,14a26.07,26.07,0,0,0-7.58,7.36c-3.26,4.93-4.74,10.3-3.67,16.2a20.15,20.15,0,0,0,7.54,12.12c7.12,5.85,17.58,7.83,26.17,1.63a118.14,118.14,0,0,1,18.85-11.07,6.54,6.54,0,0,1,3.06-.67,17.51,17.51,0,0,1,7.84,2.36c5.22,3.07,10.37,6.27,15.6,9.32A89.27,89.27,0,0,0,417.18,217.44Z"/><path class="ec0ac459-9d59-46d2-8594-9df5d703d605" d="M417.18,217.44a89.27,89.27,0,0,1-41-12c-5.23-3.05-10.38-6.25-15.6-9.32a17.51,17.51,0,0,0-7.84-2.36,6.54,6.54,0,0,0-3.06.67,118.14,118.14,0,0,0-18.85,11.07c-8.59,6.2-19,4.22-26.17-1.63a20.15,20.15,0,0,1-7.54-12.12c-1.07-5.9.41-11.27,3.67-16.2a26.07,26.07,0,0,1,7.58-7.36c7.86-5.22,15.75-10.4,24.56-14a48.62,48.62,0,0,1,19.73-4,65.79,65.79,0,0,1,30.49,8.61c5.51,3.06,10.88,6.37,16.24,9.68a40.66,40.66,0,0,0,14.81,5.24,21.56,21.56,0,0,0,13.43-2.25,84.27,84.27,0,0,0,14.32-9.2,22.06,22.06,0,0,1,30.73,3.38,20.09,20.09,0,0,1,4.44,12c.41,7.27-1.9,13.34-7.66,18.12-8.69,7.21-18,13.31-28.62,17.33A65.79,65.79,0,0,1,417.18,217.44Z"/></svg>